<?xml version="1.0" encoding="utf-8"?>

<!DOCTYPE svg PUBLIC "-//W3C//DTD SVG 1.1//EN" "http://www.w3.org/Graphics/SVG/1.1/DTD/svg11.dtd">
<!-- Uploaded to: SVG Repo, www.svgrepo.com, Generator: SVG Repo Mixer Tools -->
<svg version="1.1" id="_x32_" xmlns="http://www.w3.org/2000/svg" xmlns:xlink="http://www.w3.org/1999/xlink" 
	 viewBox="0 0 512 512"  xml:space="preserve">
<style type="text/css">
	.st0{fill:#000000;}
</style>
<g>
	<path class="st0" d="M208.321,195.163c16.924,0,30.654-13.726,30.654-30.654c0-16.929-13.73-30.654-30.654-30.654
		c-16.928,0-30.645,13.725-30.645,30.654C177.675,181.437,191.393,195.163,208.321,195.163z"/>
	<path class="st0" d="M303.675,195.163c16.929,0,30.654-13.726,30.654-30.654c0-16.929-13.725-30.654-30.654-30.654
		c-16.919,0-30.646,13.725-30.646,30.654C273.029,181.437,286.756,195.163,303.675,195.163z"/>
	<path class="st0" d="M256.003,209.838c4.216,17.913,22.116,7.372,16.859-1.053l-16.859-26.338l-16.86,26.338
		C233.881,217.21,251.79,227.751,256.003,209.838z"/>
	<path class="st0" d="M203.387,245.334v16.799h18.392v-24.516h-10.67C206.84,237.618,203.387,241.079,203.387,245.334z"/>
	<rect x="232.332" y="237.618" class="st0" width="18.387" height="24.516"/>
	<rect x="261.281" y="237.618" class="st0" width="18.392" height="24.516"/>
	<path class="st0" d="M300.896,237.618h-10.674v24.516h18.395v-16.799C308.617,241.079,305.16,237.618,300.896,237.618z"/>
	<path class="st0" d="M203.387,286.426c0,4.273,3.453,7.726,7.721,7.726h10.67v-24.525h-18.392V286.426z"/>
	<rect x="232.332" y="269.627" class="st0" width="18.387" height="24.525"/>
	<rect x="261.281" y="269.627" class="st0" width="18.392" height="24.525"/>
	<path class="st0" d="M290.222,294.152h10.674c4.264,0,7.721-3.453,7.721-7.726v-16.799h-18.395V294.152z"/>
	<path class="st0" d="M135.1,253.726c6.414,5.835,14.114,10.488,22.738,12.672v14.805c0.017,5.56,1.736,12.181,5.542,19.26
		c3.816,7.061,9.777,14.528,18.392,21.374c12.909,10.281,36.347,22.151,74.231,22.117c37.883,0.034,61.321-11.836,74.226-22.117
		c8.62-6.846,14.576-14.312,18.387-21.374c3.807-7.079,5.525-13.7,5.543-19.26v-14.805c12.024-3.038,22.219-10.86,29.734-20.078
		c4.256-5.24,7.675-10.955,10.07-16.73c2.386-5.775,3.78-11.602,3.794-17.17v-70.665c-0.039-31.422-12.353-65.124-33.088-90.996
		l0.004-0.009c-9.271-11.541-22.406-24.24-40.288-34.054C306.511,6.872,283.881-0.009,256.003,0
		c-27.883-0.009-50.509,6.872-68.387,16.696c-17.886,9.814-31.012,22.514-40.288,34.054c-20.731,25.881-33.041,59.582-33.08,91.004
		v70.665c0.009,5.568,1.403,11.395,3.79,17.17C121.643,238.239,127.517,246.811,135.1,253.726z M136.123,141.754
		c0-46.314,35.424-119.88,119.88-119.88s119.874,73.566,119.874,119.88c0,46.321,0,57.034,0,70.665
		c0,11.196-14.727,33.433-32.074,33.433c-3.755,0-7.64-1.044-11.516-3.462c0,0,0,30.646,0,38.812
		c0,8.184-16.35,40.875-76.284,40.875c-59.94,0-76.285-32.692-76.285-40.875c0-8.166,0-38.812,0-38.812
		c-3.885,2.418-7.761,3.462-11.52,3.462c-17.348,0-32.074-22.237-32.074-33.433C136.123,198.788,136.123,188.076,136.123,141.754z"
		/>
	<path class="st0" d="M444.185,336.424c-2.987-6.362-7.692-11.386-13.272-14.761c0.276-1.658,0.388-3.436,0.388-5.145
		c0-4.869-1.001-9.841-3.207-14.607c-5.922-12.603-18.53-20.07-31.638-20.07c-4.92,0-9.954,1.054-14.706,3.264
		c-5.748,2.71-10.454,6.75-13.824,11.619c-3.427,4.86-5.529,10.506-6.138,16.368c-0.22,2.046-0.552,4.696-1.16,6.966
		c-0.337,1.269-0.72,2.426-1.11,3.211l-103.516,48.386l-103.581-48.386c-0.384-0.837-0.825-1.942-1.1-3.211
		c-0.609-2.271-0.946-4.921-1.166-6.966c-1.217-11.723-8.46-22.617-19.906-27.986c-4.757-2.21-9.786-3.264-14.766-3.264
		c-13.104,0-25.656,7.467-31.574,20.132c-2.214,4.704-3.263,9.677-3.263,14.546c0,1.709,0.108,3.427,0.444,5.084
		c-5.59,3.375-10.342,8.408-13.328,14.822c-2.214,4.756-3.263,9.789-3.263,14.761c0,13.113,7.462,25.656,20.127,31.578
		c4.756,2.27,9.789,3.315,14.709,3.315c6.967,0,13.773-2.098,19.522-5.965c1.658-1.165,3.867-2.547,6.03-3.54
		c1.213-0.612,2.374-0.993,3.259-1.217l60,28.038l-32.294,15.089c-0.885-0.216-2.102-0.656-3.315-1.268
		c-2.163-0.993-4.373-2.374-6.03-3.539c-5.749-3.876-12.556-5.914-19.522-5.914c-4.92-0.06-10.009,1.045-14.709,3.264
		c-12.664,5.913-20.127,18.464-20.127,31.629c0,4.92,1.049,9.954,3.264,14.71c2.987,6.413,7.739,11.446,13.328,14.822
		c-0.337,1.657-0.445,3.376-0.445,5.084c0,4.869,1.048,9.901,3.263,14.607c5.918,12.655,18.47,20.122,31.573,20.07
		c4.981,0,10.009-1.054,14.766-3.264c5.749-2.659,10.394-6.75,13.768-11.619c3.432-4.86,5.534-10.506,6.138-16.368
		c0.22-2.046,0.557-4.696,1.165-6.966c0.328-1.278,0.717-2.434,1.1-3.212l75.932-35.444l75.814,35.444
		c0.44,0.777,0.825,1.934,1.162,3.212c0.608,2.322,0.94,4.921,1.161,6.966c1.213,11.783,8.46,22.617,19.962,27.986
		c4.752,2.21,9.789,3.315,14.706,3.315c13.108,0,25.716-7.467,31.638-20.122c2.206-4.706,3.207-9.686,3.207-14.554
		c0-1.761-0.112-3.48-0.389-5.197c5.582-3.376,10.286-8.348,13.273-14.762c2.21-4.756,3.315-9.79,3.315-14.71
		c0-13.104-7.462-25.716-20.127-31.629c-4.756-2.219-9.789-3.264-14.762-3.264c-6.974,0-13.773,2.098-19.522,5.914
		c-1.662,1.165-3.872,2.546-5.974,3.599c-1.216,0.553-2.378,0.993-3.263,1.208c-0.06,0-0.06,0-0.06,0l-32.294-15.149l59.944-27.978
		c0.885,0.164,2.106,0.605,3.324,1.217c2.098,0.993,4.312,2.374,5.974,3.54c5.748,3.867,12.547,5.965,19.522,5.965
		c4.972,0,10.005-1.096,14.762-3.315c12.664-5.922,20.126-18.465,20.126-31.578C447.5,346.214,446.395,341.181,444.185,336.424z
		 M132.019,356.391l-1.938-0.06h-0.548c-5.145,0-9.289,1.605-12.772,3.263c-3.544,1.718-6.418,3.592-8.413,4.921
		c-2.65,1.778-5.805,2.77-9.012,2.77c-2.266,0-4.536-0.5-6.742-1.554c-5.866-2.71-9.296-8.52-9.296-14.546
		c0-2.261,0.496-4.583,1.497-6.793c2.046-4.316,5.697-7.191,10.061-8.52l10.234-2.987l-4.26-9.789
		c-0.881-2.098-1.386-4.368-1.386-6.578s0.444-4.429,1.498-6.578c2.71-5.862,8.515-9.289,14.541-9.289
		c2.27,0,4.592,0.492,6.806,1.485c5.309,2.494,8.567,7.467,9.172,12.94c0.285,2.382,0.665,5.922,1.666,9.737
		c0.992,3.816,2.481,8.071,5.857,12.051l1.329,1.494l93.454,43.689l-23.445,10.945L132.019,356.391z M352.501,437.511h2.322
		c5.14-0.052,9.232-1.657,12.772-3.315c3.483-1.657,6.414-3.592,8.347-4.869l0.501-0.328c2.546-1.606,5.473-2.434,8.52-2.434
		c2.262,0,4.584,0.44,6.799,1.493c5.857,2.702,9.232,8.52,9.288,14.598c0,2.27-0.496,4.532-1.545,6.742
		c-1.993,4.316-5.645,7.251-10.065,8.52l-10.23,3.038l4.256,9.738c0.94,2.098,1.381,4.368,1.381,6.63
		c0,2.218-0.44,4.428-1.438,6.586c-2.762,5.862-8.515,9.228-14.601,9.228c-2.262,0-4.528-0.44-6.742-1.484
		c-5.365-2.495-8.628-7.468-9.236-12.888c-0.22-2.434-0.665-5.914-1.602-9.738c-1.048-3.807-2.49-8.072-5.922-12.051l-1.32-1.554
		l-65.81-30.74l23.45-10.955L352.501,437.511z M419.411,365.731c-2.214,1.054-4.537,1.554-6.798,1.554
		c-3.211,0-6.362-0.992-9.022-2.77c-1.933-1.33-4.864-3.204-8.347-4.921c-3.54-1.658-7.631-3.263-12.772-3.315l-0.497,0.052h-1.942
		l-78.408,36.662l-22.237,10.342l-23.442,10.954l-22.177,10.394l-65.805,30.74l-1.33,1.503c-3.375,4.031-4.864,8.295-5.857,12.102
		c-1.001,3.824-1.382,7.303-1.666,9.738c-0.604,5.42-3.863,10.393-9.172,12.888l-0.777,0.328c-1.99,0.828-4.035,1.156-6.03,1.156
		c-6.025,0-11.831-3.427-14.541-9.228c-1.054-2.219-1.498-4.369-1.498-6.639c0-2.21,0.506-4.48,1.386-6.578l4.26-9.738
		l-10.234-3.038c-4.363-1.269-8.015-4.204-10.061-8.52c-1.002-2.21-1.498-4.472-1.498-6.742c0-6.077,3.432-11.896,9.297-14.598
		c2.206-1.053,4.476-1.493,6.742-1.554c3.207,0,6.363,0.994,9.013,2.771l0.168,0.103l-0.168-0.051
		c1.994,1.277,4.869,3.212,8.412,4.869c3.484,1.658,7.627,3.263,12.772,3.315h0.388l1.985-0.052l50.768-23.731l22.228-10.393
		l23.394-10.946l22.229-10.342l93.459-43.689l1.321-1.494c3.432-4.04,4.873-8.296,5.922-12.111c0.937-3.815,1.382-7.295,1.602-9.677
		c0.608-5.474,3.872-10.446,9.236-12.94c2.214-1.045,4.481-1.485,6.742-1.485c6.086,0,11.84,3.427,14.602,9.289
		c0.997,2.15,1.438,4.368,1.438,6.578s-0.44,4.48-1.382,6.578l-4.256,9.789l10.229,2.987c4.42,1.329,8.072,4.204,10.066,8.52
		c1.048,2.21,1.545,4.471,1.545,6.793C428.643,357.212,425.268,363.021,419.411,365.731z"/>
</g>
</svg>